<svg width="55" height="54" viewBox="0 0 55 54" fill="none" xmlns="http://www.w3.org/2000/svg">
<path d="M22.4917 13.2378L21.8696 8.64514L20.0912 8.88603L20.0237 8.38752L24.1002 7.83533L24.1677 8.33384L22.3893 8.57474L23.0114 13.1674L22.4917 13.2378ZM25.3581 12.915L25.3358 7.77739L25.8602 7.77511L25.8703 10.0906L28.7103 10.0783L28.7002 7.76276L29.2211 7.7605L29.2434 12.8981L28.7225 12.9004L28.7125 10.5813L25.8725 10.5937L25.8826 12.9127L25.3581 12.915ZM30.2342 12.9594L30.8868 7.86337L34.0719 8.27126L34.008 8.77025L31.3431 8.42898L31.1174 10.1914L33.3576 10.4783L33.2937 10.9772L31.0535 10.6904L30.8183 12.5271L33.4831 12.8683L33.4192 13.3673L30.2342 12.9594Z" fill="white"/>
<path fill-rule="evenodd" clip-rule="evenodd" d="M20.7574 28.7416C20.7574 31.0148 20.0214 37.449 19.008 39.641C18.8873 39.6005 18.6822 39.4706 18.827 39.2757C19.008 39.0321 19.189 38.0579 18.1635 38.1188C17.138 38.1797 16.957 39.1539 16.8967 39.3975C16.8363 39.641 16.4744 41.6504 18.2841 41.6504C20.0938 41.6504 19.8525 40.3717 20.3351 40.1891C20.8177 40.0064 21.6019 39.9455 22.1448 40.1891C22.6878 40.4326 23.9546 41.2851 25.1007 41.346C26.2469 41.4069 31.676 42.2594 34.9938 39.0321C38.3116 35.8049 35.778 32.1515 34.5716 30.9336C33.3651 29.7158 32.2281 28.7416 29.2119 28.7416C32.2281 28.7416 33.3743 27.7673 34.5808 26.5495C35.7872 25.3317 38.3208 21.6782 35.003 18.451C31.6852 15.2238 26.2561 16.0763 25.1099 16.1372C23.9637 16.198 22.6969 17.0505 22.154 17.2941C21.6111 17.5376 20.8269 17.4768 20.3443 17.2941C19.8617 17.1114 20.103 15.8327 18.2933 15.8327C16.4836 15.8327 16.8455 17.8421 16.9059 18.0857C16.9662 18.3292 17.1472 19.3035 18.1727 19.3644C19.1982 19.4253 19.0172 18.451 18.8362 18.2074C18.6914 18.0126 18.8965 17.8827 19.0172 17.8421C20.0306 20.0342 20.7574 26.4683 20.7574 28.7416ZM23.8339 30.9336C23.6409 33.418 22.6274 36.9213 22.1448 38.3623C24.8594 40.1891 26.5485 40.1891 28.8408 39.3975C31.1331 38.6059 31.4347 36.2312 31.5554 34.5871C31.676 32.943 30.9521 31.6034 29.3234 30.8119C28.0204 30.1786 25.1208 30.6292 23.8339 30.9336ZM23.8431 26.5495C23.6501 24.0652 22.6366 20.5619 22.154 19.1208C24.8686 17.2941 26.5577 17.2941 28.85 18.0857C31.1423 18.8772 31.4439 21.252 31.5646 22.896C31.6852 24.5401 30.9613 25.8797 29.3326 26.6713C28.0296 27.3045 25.13 26.854 23.8431 26.5495Z" fill="white"/>
<path d="M10.6738 28.6976C11.2875 28.8239 13.0926 29.4685 13.9643 30.8835C15.0539 32.6522 17.9466 35.1632 19.9359 35.8641C21.9252 36.5649 26.8922 38.3777 32.6197 36.9648C38.3472 35.552 37.2327 36.3522 40.7844 33.1166C40.3561 33.5406 39.7319 34.4866 40.6615 34.8791C41.8236 35.3698 42.3729 34.7546 42.5338 33.792C42.6947 32.8295 42.9092 31.9338 41.7061 31.2552C40.503 30.5765 39.5276 32.371 39.335 32.473C39.1424 32.5751 33.8131 35.9894 28.5874 35.4962C23.3616 35.003 20.7691 33.6871 18.2807 31.9537C17.247 31.1642 15.896 28.8159 18.7677 28.6978C15.8993 28.5855 17.2808 26.2981 18.3146 25.5087C20.8029 23.7753 23.3954 22.4594 28.6212 21.9662C33.8469 21.473 39.1762 24.8873 39.3688 24.9893C39.5614 25.0914 40.5368 26.8859 41.7399 26.2072C42.943 25.5285 42.7285 24.6329 42.5676 23.6704C42.4067 22.7078 41.8574 22.0926 40.6954 22.5832C39.7657 22.9757 40.3899 23.9218 40.8182 24.3458C37.2665 21.1102 38.381 21.9104 32.6535 20.4975C26.9261 19.0847 21.959 20.8974 19.9697 21.5983C17.9804 22.2992 15.0877 24.8102 13.9981 26.5789C13.1264 27.9939 11.2875 28.5713 10.6738 28.6976Z" fill="white"/>
<path d="M27.3691 1.94586C39.406 1.94586 49.2217 12.9721 49.2217 26.648C49.2217 40.324 39.406 51.3502 27.3691 51.3502C15.3325 51.3499 5.51758 40.3238 5.51758 26.648C5.5176 12.9722 15.3325 1.9461 27.3691 1.94586Z" stroke="white" stroke-width="0.570854"/>
<path d="M27.3701 0.285156C40.2333 0.285156 50.7178 12.0555 50.7178 26.6484C50.7176 41.2412 40.2332 53.0107 27.3701 53.0107C14.507 53.0107 4.0226 41.2412 4.02246 26.6484C4.02246 12.0555 14.507 0.285185 27.3701 0.285156Z" stroke="white" stroke-width="0.570854"/>
</svg>
