<svg width="200" height="200" viewBox="0 0 200 200" fill="none" xmlns="http://www.w3.org/2000/svg">
<rect width="200" height="200" fill="#1A0303"/>
<path d="M89.0002 56.4291L87.9325 46.9849L84.2755 47.3984L84.1596 46.3732L92.5423 45.4256L92.6582 46.4507L89.0012 46.8641L90.0689 56.3083L89.0002 56.4291ZM94.8944 55.866L94.7652 45.3308L95.8406 45.3176L95.8989 50.0658L101.723 49.9943L101.664 45.2462L102.732 45.2331L102.862 55.7683L101.794 55.7814L101.735 51.0259L95.9115 51.0973L95.9699 55.8528L94.8944 55.866ZM104.901 55.8458L105.827 45.3505L112.387 45.929L112.296 46.9567L106.808 46.4726L106.488 50.1023L111.101 50.5091L111.011 51.5368L106.397 51.1299L106.063 54.9126L111.552 55.3966L111.461 56.4243L104.901 55.8458Z" fill="#F8E0B6"/>
<path fill-rule="evenodd" clip-rule="evenodd" d="M79.3746 106.809C79.3746 113.754 77.1357 133.411 74.0527 140.108C73.6857 139.984 73.0618 139.588 73.5022 138.992C74.0527 138.248 74.6034 135.272 71.4837 135.458C68.364 135.644 67.8135 138.62 67.63 139.364C67.4464 140.108 66.3454 146.247 71.8507 146.247C77.3561 146.247 76.622 142.341 78.0901 141.783C79.5582 141.225 81.9438 141.039 83.5954 141.783C85.247 142.527 89.1007 145.131 92.5875 145.317C96.0742 145.503 112.59 148.108 122.683 138.248C132.776 128.389 125.069 117.227 121.399 113.506C117.729 109.786 114.27 106.809 105.094 106.809C114.27 106.809 117.756 103.833 121.427 100.112C125.097 96.3913 132.804 85.2295 122.711 75.3699C112.618 65.5103 96.1021 68.1147 92.6154 68.3008C89.1287 68.4868 85.275 71.0912 83.6234 71.8353C81.9718 72.5795 79.5861 72.3934 78.118 71.8353C76.6499 71.2772 77.384 67.3706 71.8787 67.3706C66.3733 67.3706 67.4744 73.5096 67.6579 74.2537C67.8414 74.9978 68.392 77.9743 71.5116 78.1604C74.6313 78.3464 74.0807 75.3699 73.5301 74.6258C73.0897 74.0305 73.7137 73.6336 74.0807 73.5096C77.1637 80.2067 79.3746 99.8639 79.3746 106.809ZM88.7337 113.506C88.1465 121.096 85.0635 131.799 83.5954 136.202C91.8534 141.783 96.9917 141.783 103.965 139.364C110.939 136.946 111.856 129.691 112.223 124.668C112.59 119.645 110.388 115.552 105.433 113.134C101.469 111.199 92.6486 112.576 88.7337 113.506ZM88.7617 100.112C88.1744 92.5219 85.0915 81.819 83.6234 77.4162C91.8814 71.8353 97.0197 71.8353 103.993 74.2537C110.967 76.6721 111.884 83.9273 112.251 88.9501C112.618 93.9729 110.416 98.0656 105.461 100.484C101.497 102.419 92.6766 101.042 88.7617 100.112Z" fill="#F8E0B6"/>
<path d="M48.7007 106.675C50.5674 107.061 56.0588 109.03 58.7106 113.353C62.0253 118.757 70.825 126.428 76.8768 128.57C82.9285 130.711 98.0387 136.249 115.462 131.932C132.886 127.616 129.495 130.061 140.3 120.176C138.997 121.471 137.098 124.361 139.926 125.56C143.461 127.059 145.132 125.18 145.622 122.239C146.111 119.298 146.764 116.562 143.104 114.489C139.444 112.415 136.477 117.898 135.891 118.209C135.305 118.521 119.093 128.952 103.195 127.446C87.2982 125.939 79.4116 121.919 71.8417 116.623C68.6968 114.211 64.5871 107.036 73.3232 106.676C64.597 106.333 68.7998 99.3442 71.9445 96.9324C79.5144 91.6365 87.4011 87.6163 103.298 86.1095C119.196 84.6028 135.408 95.034 135.994 95.3457C136.58 95.6574 139.547 101.14 143.207 99.0665C146.867 96.993 146.214 94.2567 145.725 91.316C145.235 88.3753 143.564 86.4957 140.029 87.9947C137.201 89.1939 139.1 92.0842 140.403 93.3795C129.598 83.4944 132.989 85.939 115.565 81.6226C98.1416 77.3062 83.0314 82.8443 76.9796 84.9856C70.9279 87.1268 62.1281 94.7984 58.8134 100.202C56.1617 104.525 50.5674 106.289 48.7007 106.675Z" fill="#F8E0B6"/>
<path d="M99.4907 24.9443C136.103 24.9446 165.963 58.6277 165.963 100.414C165.963 142.2 136.103 175.883 99.4907 175.884C62.878 175.884 33.0171 142.201 33.0171 100.414C33.0171 58.6276 62.878 24.9443 99.4907 24.9443Z" stroke="#F8E0B6" stroke-width="1.74031"/>
<path d="M99.4907 19.8701C138.617 19.8702 170.514 55.8262 170.514 100.414C170.514 145.002 138.617 180.957 99.4907 180.957C60.3642 180.957 28.4674 145.002 28.4673 100.414C28.4673 55.8262 60.3642 19.8701 99.4907 19.8701Z" stroke="#F8E0B6" stroke-width="1.74031"/>
</svg>
