<svg width="79" height="51" viewBox="0 0 79 51" fill="none" xmlns="http://www.w3.org/2000/svg">
<path d="M30.7474 8.42474C31.4723 8.42474 31.8865 8.36722 31.8865 7.99903V1.57886H30.011C29.6659 1.57886 29.5853 2.13114 29.5853 2.71793H29.0101V0.946049H35.902V2.71793H35.3267C35.3267 2.13114 35.2461 1.57886 34.901 1.57886H33.0255V7.99903C33.0255 8.36722 33.4397 8.42474 34.1646 8.42474V9.00003C33.8194 9.00003 33.1406 8.96551 32.4618 8.96551C31.8405 8.96551 31.2652 9.00003 30.7474 9.00003V8.42474Z" fill="#1A0303"/>
<path d="M36.2487 8.5398C36.6054 8.5398 37.1577 8.45926 37.1577 8.11409V1.08412C37.1577 0.900026 37.0311 0.819487 36.8125 0.946049L36.2027 1.27971L36.0762 0.842498C36.7665 0.520339 37.4453 0.0946286 38.1357 -0.411621L38.2968 -0.296564V4.74293C38.9526 3.70741 39.896 3.0631 40.6209 3.0631C41.7485 3.0631 42.0706 4.05258 42.0706 5.05358V8.11409C42.0706 8.45926 42.6229 8.5398 42.9796 8.5398V9.00003C42.6344 9.00003 42.1857 8.96551 41.5068 8.96551C40.8855 8.96551 40.5404 9.00003 40.0226 9.00003V8.5398C40.3793 8.5398 40.9316 8.45926 40.9316 8.11409V5.28369C40.9316 4.75443 40.7245 4.04108 39.9191 4.04108C39.4013 4.04108 38.78 4.42077 38.2968 5.12261V8.11409C38.2968 8.45926 38.849 8.5398 39.2057 8.5398V9.00003C38.8605 9.00003 38.4118 8.96551 37.733 8.96551C37.1117 8.96551 36.7665 9.00003 36.2487 9.00003V8.5398Z" fill="#1A0303"/>
<path d="M45.4041 9.18412C44.0119 9.18412 42.9764 7.91849 42.9764 6.3077C42.9764 4.53582 44.127 3.0631 45.6112 3.0631C47.0034 3.0631 48.0504 4.22517 48.0504 5.99705H44.1155C44.1155 7.56182 44.8173 8.32119 45.6803 8.32119C46.8769 8.32119 47.4061 7.35472 47.7168 6.61835L48.131 6.7219C47.7398 7.97602 46.8999 9.18412 45.4041 9.18412ZM46.8999 5.58284C46.8193 4.43227 46.3821 3.58085 45.5652 3.58085C44.7713 3.58085 44.2075 4.43227 44.127 5.57133L46.8999 5.58284Z" fill="#1A0303"/>
<path d="M0 37V14.9091H8.52955C9.76705 14.9091 10.846 15.1648 11.7665 15.6762C12.6869 16.1875 13.4028 16.8779 13.9142 17.7472C14.4256 18.6063 14.6813 19.5574 14.6813 20.6006C14.6813 21.787 14.3642 22.8455 13.7301 23.7762C13.096 24.6966 12.2472 25.3358 11.1835 25.6938L11.1528 24.9421C12.5847 25.3512 13.7097 26.0671 14.5278 27.0898C15.346 28.1125 15.7551 29.35 15.7551 30.8023C15.7551 32.0807 15.4841 33.1853 14.942 34.1159C14.4 35.0364 13.6381 35.7472 12.6563 36.2483C11.6744 36.7495 10.5341 37 9.23523 37H0ZM2.27046 34.837H8.68296C9.58296 34.837 10.3909 34.6784 11.1068 34.3614C11.8227 34.0341 12.3852 33.5739 12.7943 32.9807C13.2136 32.3875 13.4233 31.6716 13.4233 30.833C13.4233 30.0148 13.2341 29.2784 12.8557 28.6239C12.4773 27.9693 11.9608 27.4478 11.3063 27.0591C10.6619 26.6603 9.92557 26.4608 9.09716 26.4608H2.27046V34.837ZM2.27046 24.3284H8.51421C9.21989 24.3284 9.86421 24.1699 10.4472 23.8529C11.0301 23.5256 11.4903 23.0807 11.8278 22.5182C12.1756 21.9557 12.3494 21.3063 12.3494 20.5699C12.3494 19.5267 11.9864 18.6779 11.2602 18.0233C10.5443 17.3688 9.62898 17.0415 8.51421 17.0415H2.27046V24.3284Z" fill="#1A0303"/>
<path d="M27.7603 37.4603C25.5615 37.4603 23.7052 36.9745 22.1916 36.0029C20.678 35.0211 19.5325 33.6659 18.7552 31.9375C17.978 30.2091 17.5893 28.2148 17.5893 25.9546C17.5893 23.6943 17.978 21.7 18.7552 19.9716C19.5325 18.2432 20.678 16.8932 22.1916 15.9216C23.7052 14.9398 25.5615 14.4489 27.7603 14.4489C29.9694 14.4489 31.8257 14.9398 33.3291 15.9216C34.8427 16.8932 35.9882 18.2432 36.7655 19.9716C37.553 21.7 37.9467 23.6943 37.9467 25.9546C37.9467 28.2148 37.553 30.2091 36.7655 31.9375C35.9882 33.6659 34.8427 35.0211 33.3291 36.0029C31.8257 36.9745 29.9694 37.4603 27.7603 37.4603ZM27.7603 35.2972C29.4887 35.2972 30.9308 34.9034 32.0865 34.1159C33.2422 33.3284 34.1064 32.2341 34.6791 30.833C35.262 29.4216 35.5535 27.7955 35.5535 25.9546C35.5535 24.1137 35.262 22.4926 34.6791 21.0915C34.1064 19.6904 33.2422 18.596 32.0865 17.8085C30.9308 17.021 29.4887 16.6222 27.7603 16.612C26.0319 16.612 24.595 17.0057 23.4495 17.7932C22.3041 18.5807 21.4399 19.6801 20.8569 21.0915C20.2842 22.4926 19.9927 24.1137 19.9825 25.9546C19.9723 27.7955 20.2535 29.4165 20.8262 30.8176C21.4092 32.2085 22.2785 33.3029 23.4342 34.1006C24.5899 34.8881 26.0319 35.287 27.7603 35.2972Z" fill="#1A0303"/>
<path d="M49.9627 37.4603C47.7638 37.4603 45.9076 36.9745 44.394 36.0029C42.8803 35.0211 41.7349 33.6659 40.9576 31.9375C40.1803 30.2091 39.7917 28.2148 39.7917 25.9546C39.7917 23.6943 40.1803 21.7 40.9576 19.9716C41.7349 18.2432 42.8803 16.8932 44.394 15.9216C45.9076 14.9398 47.7638 14.4489 49.9627 14.4489C52.1718 14.4489 54.0281 14.9398 55.5315 15.9216C57.0451 16.8932 58.1906 18.2432 58.9678 19.9716C59.7553 21.7 60.1491 23.6943 60.1491 25.9546C60.1491 28.2148 59.7553 30.2091 58.9678 31.9375C58.1906 33.6659 57.0451 35.0211 55.5315 36.0029C54.0281 36.9745 52.1718 37.4603 49.9627 37.4603ZM49.9627 35.2972C51.6911 35.2972 53.1332 34.9034 54.2888 34.1159C55.4445 33.3284 56.3087 32.2341 56.8815 30.833C57.4644 29.4216 57.7559 27.7955 57.7559 25.9546C57.7559 24.1137 57.4644 22.4926 56.8815 21.0915C56.3087 19.6904 55.4445 18.596 54.2888 17.8085C53.1332 17.021 51.6911 16.6222 49.9627 16.612C48.2343 16.612 46.7974 17.0057 45.6519 17.7932C44.5065 18.5807 43.6423 19.6801 43.0593 21.0915C42.4866 22.4926 42.1951 24.1137 42.1849 25.9546C42.1746 27.7955 42.4559 29.4165 43.0286 30.8176C43.6116 32.2085 44.4809 33.3029 45.6366 34.1006C46.7923 34.8881 48.2343 35.287 49.9627 35.2972Z" fill="#1A0303"/>
<path d="M63.2213 37V14.9091H65.4764V25.3409L75.5554 14.9091H78.4395L68.1458 25.571L79.2833 37H76.3378L65.4764 25.9546V37H63.2213Z" fill="#1A0303"/>
<path d="M34.6055 44.3152C34.7551 44.6144 34.3984 45.6154 33.6275 46.4898L33.1443 46.2252C33.5815 45.3968 33.8001 44.7524 33.662 44.4993C33.2939 43.855 32.6495 43.4753 31.7291 43.4753C30.475 43.4753 29.0828 44.7409 29.0828 46.8005C29.0828 49.2742 30.3599 50.2291 31.7061 50.2291C33.2363 50.2291 33.9727 48.6644 34.3984 47.6519L34.9622 47.8014C34.4329 49.5158 33.3859 51.1841 31.4299 51.1841C29.4855 51.1841 27.8977 49.4353 27.8977 47.2147C27.8977 44.787 29.6466 42.762 31.9592 42.762C33.0522 42.762 34.1108 43.3488 34.6055 44.3152Z" fill="#1A0303"/>
<path d="M34.9566 50.5398C35.3133 50.5398 35.8656 50.4593 35.8656 50.1141V43.0841C35.8656 42.9 35.739 42.8195 35.5204 42.946L34.9106 43.2797L34.784 42.8425C35.4744 42.5203 36.1532 42.0946 36.8435 41.5884L37.0046 41.7034V50.1141C37.0046 50.4593 37.5569 50.5398 37.9136 50.5398V51C37.5684 51 37.1197 50.9655 36.4408 50.9655C35.8195 50.9655 35.4744 51 34.9566 51V50.5398Z" fill="#1A0303"/>
<path d="M42.9902 50.1141C42.9902 50.3442 43.5425 50.5398 43.8991 50.5398V51H41.8511V50.0911C41.3564 50.7124 40.597 51.1841 39.7571 51.1841C38.9747 51.1841 38.6525 50.6549 38.6525 49.6539V46.1331C38.6525 45.903 38.1003 45.7074 37.7436 45.7074V45.2472H39.7916V49.3087C39.7916 49.838 39.9987 50.2061 40.4589 50.2061C41.0687 50.2061 41.5175 49.8955 41.8511 49.4007V46.1331C41.8511 45.903 41.2988 45.7074 40.9422 45.7074V45.2472H42.9902V50.1141Z" fill="#1A0303"/>
<path d="M46.998 51.1841C46.2502 51.1841 45.7209 50.8159 45.3642 50.2291V51H44.2252V43.0841C44.2252 42.9 44.0986 42.8195 43.88 42.946L43.2702 43.2797L43.1436 42.8425C43.834 42.5203 44.5128 42.0946 45.2031 41.5884L45.3642 41.7034V45.8915C45.7094 45.3738 46.2156 45.0631 46.906 45.0631C48.3902 45.0631 49.4257 46.5358 49.4257 48.3077C49.4257 49.9185 48.3672 51.1841 46.998 51.1841ZM46.8254 50.5513C47.6884 50.5513 48.2752 49.5618 48.2752 48.1121C48.2752 46.6854 47.6884 45.6959 46.8254 45.6959C45.951 45.6959 45.3642 46.6854 45.3642 48.1121C45.3642 49.5618 45.951 50.5513 46.8254 50.5513Z" fill="#1A0303"/>
</svg>
